<svg xmlns="http://www.w3.org/2000/svg" width="16" height="16" viewBox="0 0 16 16" style="overflow: visible;">
  <defs>
    <linearGradient id="gradient-phone" x1="0%" y1="0%" x2="100%" y2="100%">
      <stop offset="0%" stop-color="#00A3E0" />
      <stop offset="50%" stop-color="#FF007F" />
      <stop offset="100%" stop-color="#FF6B35" />
    </linearGradient>

    <filter id="glow-phone" x="-30%" y="-30%" width="160%" height="160%">
      <feGaussianBlur stdDeviation="0.7" result="blur" />
      <feComposite in="SourceGraphic" in2="blur" operator="over" />
    </filter>
  </defs>

  <g fill="url(#gradient-phone)">
    <path d="M11 1a1 1 0 0 1 1 1v12a1 1 0 0 1-1 1H5a1 1 0 0 1-1-1V2a1 1 0 0 1 1-1zM5 0a2 2 0 0 0-2 2v12a2 2 0 0 0 2 2h6a2 2 0 0 0 2-2V2a2 2 0 0 0-2-2z"/>
    <path d="M8 14a1 1 0 1 0 0-2 1 1 0 0 0 0 2"/>
  </g>
</svg>
