<svg xmlns="http://www.w3.org/2000/svg" width="16" height="16" viewBox="0 0 16 16" style="overflow: visible;">
  <defs>
    <linearGradient id="gradient-reels" x1="0%" y1="0%" x2="100%" y2="100%">
      <stop offset="0%" stop-color="#00A3E0" />
      <stop offset="50%" stop-color="#FF007F" />
      <stop offset="100%" stop-color="#FF6B35" />
    </linearGradient>

    <filter id="glow-reels" x="-30%" y="-30%" width="160%" height="160%">
      <feGaussianBlur stdDeviation="0.7" result="blur" />
      <feComposite in="SourceGraphic" in2="blur" operator="over" />
    </filter>
  </defs>

  <g fill="url(#gradient-reels)">
    <path d="M6 3a3 3 0 1 1-6 0 3 3 0 0 1 6 0M1 3a2 2 0 1 0 4 0 2 2 0 0 0-4 0"/>
    <path d="M9 6h.5a2 2 0 0 1 1.983 1.738l3.11-1.382A1 1 0 0 1 16 7.269v7.462a1 1 0 0 1-1.406.913l-3.111-1.382A2 2 0 0 1 9.5 16H2a2 2 0 0 1-2-2V8a2 2 0 0 1 2-2zm6 8.73V7.27l-3.5 1.555v4.35zM1 8v6a1 1 0 0 0 1 1h7.5a1 1 0 0 0 1-1V8a1 1 0 0 0-1-1H2a1 1 0 0 0-1 1"/>
    <path d="M9 6a3 3 0 1 0 0-6 3 3 0 0 0 0 6M7 3a2 2 0 1 1 4 0 2 2 0 0 1-4 0"/>
  </g>
</svg>
