<svg viewBox="0 0 1080 1080" xmlns="http://www.w3.org/2000/svg">
    <defs>
        <filter id="shadow">
            <feDropShadow dx="2" dy="0" stdDeviation="4" flood-color="rgba(0,163,224,0.5)" />
            <feDropShadow dx="4" dy="0" stdDeviation="6" flood-color="rgba(255,0,127,0.3)" />
        </filter>
        <linearGradient id="gradient-camera" x1="0%" y1="0%" x2="100%" y2="100%">
            <stop offset="0%" stop-color="#FF3B30" />
            <stop offset="50%" stop-color="#FF6B35" />
            <stop offset="100%" stop-color="#00A3E0" />
        </linearGradient>
    </defs>
    

    
    <g transform="scale(6)">
        <!-- Letter V -->
        <text x="75" y="145" font-family="system-ui, -apple-system, BlinkMacSystemFont, 'Segoe UI', Roboto, Helvetica, Arial, sans-serif" font-weight="900" font-size="150" letter-spacing="-5" fill="#111" text-anchor="middle" filter="url(#shadow)">V</text>
        
        <!-- Expanded Dot -->
        <g transform="translate(100, 95)">
            <circle cx="32" cy="32" r="32" fill="rgba(255, 59, 48, 0.1)" />
            <!-- inset shadow simulation -->
            <circle cx="32" cy="32" r="30" fill="none" stroke="rgba(255, 59, 48, 0.3)" stroke-width="4" />
            
            <!-- Camera Icon -->
            <g transform="translate(13.5, 13.5) scale(2.3)" fill="url(#gradient-camera)">
                <path d="M15 12a1 1 0 0 1-1 1H2a1 1 0 0 1-1-1V6a1 1 0 0 1 1-1h1.172a3 3 0 0 0 2.12-.879l.83-.828A1 1 0 0 1 6.827 3h2.344a1 1 0 0 1 .707.293l.828.828A3 3 0 0 0 12.828 5H14a1 1 0 0 1 1 1zM2 4a2 2 0 0 0-2 2v6a2 2 0 0 0 2 2h12a2 2 0 0 0 2-2V6a2 2 0 0 0-2-2h-1.172a2 2 0 0 1-1.414-.586l-.828-.828A2 2 0 0 0 9.172 2H6.828a2 2 0 0 0-1.414.586l-.828.828A2 2 0 0 1 3.172 4z"/>
                <path d="M8 11a2.5 2.5 0 1 1 0-5 2.5 2.5 0 0 1 0 5m0 1a3.5 3.5 0 1 0 0-7 3.5 3.5 0 0 0 0 7M3 6.5a.5.5 0 1 1-1 0 .5.5 0 0 1 1 0"/>
            </g>
        </g>
    </g>
</svg>
